<svg xmlns="http://www.w3.org/2000/svg" width="140" height="140" viewBox="0 0 100 100" fill="none">
<g xmlns="http://www.w3.org/2000/svg" filter="url(#filter0_d_1264_25711)">
<rect x="40" y="40" width="60" height="60" rx="30" fill="#212126"/>
<path d="M83.3333 70C83.3333 63.715 83.3333 60.5717 81.38 58.62C79.4283 56.6667 76.285 56.6667 70 56.6667C63.715 56.6667 60.5716 56.6667 58.62 58.62C56.6666 60.5717 56.6666 63.715 56.6666 70V80C56.6666 81.5717 56.6666 82.3567 57.155 82.845C57.6433 83.3334 58.4283 83.3334 60 83.3334H70C76.285 83.3334 79.4283 83.3334 81.38 81.38C83.3333 79.4284 83.3333 76.285 83.3333 70Z" stroke="#F9FAFB" stroke-width="2"/>
<path d="M72.3989 67.1862C72.1162 65.9327 70.3535 65.9402 70.0826 67.1952L70.0722 67.2433L70.0515 67.3423C69.8997 68.0329 69.5492 68.6623 69.0443 69.1505C68.5395 69.6388 67.903 69.9641 67.2157 70.0851C65.9281 70.3117 65.9281 72.1883 67.2157 72.4149C67.9055 72.5364 68.544 72.8637 69.0496 73.3548C69.5552 73.846 69.9051 74.4789 70.0545 75.1727L70.0826 75.3048C70.3549 76.5598 72.1162 76.5673 72.3974 75.3138L72.4329 75.1607C72.5885 74.4696 72.942 73.8406 73.4489 73.3526C73.9558 72.8647 74.5935 72.5395 75.282 72.4179C76.5727 72.1898 76.5727 70.3102 75.282 70.0821C73.8819 69.8344 72.763 68.764 72.4374 67.3618L72.4107 67.2448L72.3989 67.1862Z" fill="#F9FAFB"/>
<path d="M65.5744 64.2181C65.4331 63.5913 64.5517 63.5951 64.4163 64.2226L64.4111 64.2466L64.4008 64.2962C64.3249 64.6415 64.1496 64.9561 63.8972 65.2003C63.6447 65.4444 63.3265 65.607 62.9829 65.6675C62.339 65.7809 62.339 66.7191 62.9829 66.8325C63.3278 66.8932 63.647 67.0568 63.8998 67.3024C64.1526 67.548 64.3275 67.8645 64.4022 68.2113L64.4163 68.2774C64.5525 68.9049 65.4331 68.9087 65.5737 68.2819L65.5915 68.2053C65.6693 67.8598 65.846 67.5453 66.0994 67.3013C66.3529 67.0573 66.6718 66.8947 67.016 66.834C67.6613 66.7199 67.6613 65.7801 67.016 65.666C66.316 65.5422 65.7565 65.007 65.5937 64.3059L65.5804 64.2474L65.5744 64.2181Z" fill="#F9FAFB"/>
</g>
</svg>