<svg width="48" height="48" viewBox="0 0 48 48" fill="none" xmlns="http://www.w3.org/2000/svg">
<rect width="48" height="48" rx="24" fill="#3B82F6"/>
<path d="M34.6668 23.9999C34.6668 18.9719 34.6668 16.4573 33.1042 14.8959C31.5428 13.3333 29.0282 13.3333 24.0002 13.3333C18.9722 13.3333 16.4575 13.3333 14.8962 14.8959C13.3335 16.4573 13.3335 18.9719 13.3335 23.9999V31.9999C13.3335 33.2573 13.3335 33.8853 13.7242 34.2759C14.1148 34.6666 14.7428 34.6666 16.0002 34.6666H24.0002C29.0282 34.6666 31.5428 34.6666 33.1042 33.1039C34.6668 31.5426 34.6668 29.0279 34.6668 23.9999Z" stroke="white" stroke-width="2"/>
<path d="M20 21.3333H28M20 26.6666H24" stroke="white" stroke-width="2" stroke-linecap="round" stroke-linejoin="round"/>
</svg>
