<svg width="64" height="64" viewBox="0 0 64 64" fill="none" xmlns="http://www.w3.org/2000/svg">
<rect width="64" height="64" rx="32" fill="#F9FAFB"/>
<path d="M33.0236 23.2193L38.7833 29.0393C39.0722 29.3322 39.0722 29.8065 38.7833 30.0993C38.6457 30.2423 38.4569 30.3229 38.2597 30.3229C38.0625 30.3229 37.8737 30.2423 37.7361 30.0993L33.241 25.5593V36.7893C33.241 37.2036 32.9092 37.5393 32.5 37.5393C32.0908 37.5393 31.759 37.2036 31.759 36.7893V25.5593L27.2639 30.0993C27.1264 30.2419 26.9372 30.3214 26.7403 30.3193C26.5436 30.3203 26.3549 30.241 26.2167 30.0993C25.9278 29.8065 25.9278 29.3322 26.2167 29.0393L31.9764 23.2193C32.2657 22.9269 32.7343 22.9269 33.0236 23.2193Z" fill="black"/>
<path d="M27.5603 39.0793H37.4397C37.8489 39.0793 38.1807 39.4151 38.1807 39.8293C38.1807 40.2436 37.8489 40.5793 37.4397 40.5793H27.5603C27.1511 40.5793 26.8193 40.2436 26.8193 39.8293C26.8193 39.4151 27.1511 39.0793 27.5603 39.0793Z" fill="black"/>
</svg>
